<svg xmlns="http://www.w3.org/2000/svg" viewBox="0 0 19.94 22.42"><defs><style>.cls-1{fill:#d6809b;}</style></defs><title>borrar</title><g id="Capa_2" data-name="Capa 2"><g id="Layer_1" data-name="Layer 1"><path class="cls-1" d="M19.32,3.23H14.65V2.47A2.47,2.47,0,0,0,12.19,0H7.75A2.47,2.47,0,0,0,5.29,2.47v.76H.62a.62.62,0,1,0,0,1.24H1.75V19.09a3.33,3.33,0,0,0,3.33,3.33h9.79a3.33,3.33,0,0,0,3.33-3.33V4.47h1.12a.62.62,0,0,0,0-1.24ZM6.53,2.47A1.22,1.22,0,0,1,7.75,1.24h4.43a1.22,1.22,0,0,1,1.22,1.22v.76H6.53ZM16.95,19.09a2.09,2.09,0,0,1-2.08,2.08H5.07A2.09,2.09,0,0,1,3,19.09V4.47H17V19.09Z"/><path class="cls-1" d="M10,18.94a.62.62,0,0,0,.62-.62v-11a.62.62,0,1,0-1.24,0v11A.62.62,0,0,0,10,18.94Z"/><path class="cls-1" d="M5.91,18.26a.62.62,0,0,0,.62-.62V8A.62.62,0,0,0,5.29,8v9.63A.62.62,0,0,0,5.91,18.26Z"/><path class="cls-1" d="M14,18.26a.62.62,0,0,0,.62-.62V8a.62.62,0,0,0-1.25,0v9.63A.62.62,0,0,0,14,18.26Z"/></g></g></svg>