<?xml version="1.0" encoding="utf-8"?>
<!-- Generator: Adobe Illustrator 16.0.0, SVG Export Plug-In . SVG Version: 6.00 Build 0)  -->
<!DOCTYPE svg PUBLIC "-//W3C//DTD SVG 1.1//EN" "http://www.w3.org/Graphics/SVG/1.1/DTD/svg11.dtd">
<svg version="1.1" id="Layer_1" xmlns="http://www.w3.org/2000/svg" xmlns:xlink="http://www.w3.org/1999/xlink" x="0px" y="0px"
	 width="500px" height="120.624px" viewBox="0 0 500 120.624" enable-background="new 0 0 500 120.624" xml:space="preserve">
<g>
	<path fill="#EE3F62" d="M106.063,63.81c0.272-4.535,1.405-8.301,3.402-11.295c1.994-2.993,4.535-5.396,7.62-7.212
		c3.083-1.814,6.554-3.106,10.411-3.879c3.854-0.77,7.733-1.156,11.635-1.156c3.538,0,7.121,0.251,10.751,0.748
		c3.627,0.5,6.94,1.476,9.934,2.926c2.994,1.452,5.443,3.471,7.349,6.056c1.905,2.586,2.858,6.012,2.858,10.274v36.607
		c0,3.177,0.181,6.215,0.544,9.117c0.361,2.904,0.997,5.082,1.905,6.532h-19.596c-0.364-1.089-0.659-2.198-0.885-3.334
		c-0.228-1.134-0.388-2.29-0.477-3.471c-3.085,3.177-6.715,5.399-10.887,6.669c-4.174,1.27-8.438,1.905-12.792,1.905
		c-3.357,0-6.487-0.408-9.39-1.226c-2.905-0.816-5.443-2.086-7.621-3.81c-2.177-1.723-3.878-3.9-5.104-6.532
		c-1.225-2.631-1.837-5.761-1.837-9.39c0-3.991,0.702-7.281,2.109-9.866c1.405-2.586,3.22-4.648,5.443-6.192
		c2.223-1.541,4.763-2.698,7.621-3.47c2.857-0.771,5.736-1.383,8.642-1.838c2.902-0.452,5.76-0.816,8.573-1.088
		c2.811-0.272,5.307-0.681,7.484-1.226c2.178-0.544,3.899-1.337,5.171-2.381c1.27-1.042,1.858-2.562,1.77-4.559
		c0-2.086-0.34-3.743-1.021-4.968s-1.589-2.177-2.722-2.857c-1.136-0.681-2.45-1.134-3.946-1.361
		c-1.497-0.225-3.109-0.34-4.831-0.34c-3.811,0-6.805,0.816-8.982,2.449c-2.177,1.634-3.448,4.355-3.81,8.165H106.063z
		 M150.699,78.099c-0.816,0.728-1.837,1.293-3.062,1.701c-1.226,0.408-2.541,0.749-3.947,1.021c-1.407,0.272-2.881,0.5-4.423,0.681
		c-1.543,0.183-3.085,0.408-4.626,0.681c-1.453,0.271-2.882,0.636-4.287,1.089c-1.407,0.455-2.633,1.067-3.675,1.837
		c-1.044,0.771-1.884,1.748-2.518,2.926c-0.636,1.18-0.952,2.677-0.952,4.49c0,1.725,0.316,3.177,0.952,4.355
		c0.634,1.18,1.497,2.109,2.586,2.789c1.089,0.681,2.358,1.157,3.811,1.43c1.45,0.271,2.947,0.408,4.491,0.408
		c3.81,0,6.757-0.634,8.845-1.905c2.086-1.27,3.628-2.79,4.627-4.56c0.997-1.769,1.61-3.559,1.838-5.375
		c0.225-1.813,0.34-3.266,0.34-4.354V78.099z M163.899,5.702l-22.182,24.087h-13.473L142.67,5.702H163.899z"/>
	<path fill="#EE3F62" d="M200.776,42.173v9.798h0.408c2.45-4.083,5.624-7.053,9.526-8.914c3.899-1.858,7.893-2.789,11.976-2.789
		c5.171,0,9.411,0.703,12.724,2.109c3.311,1.407,5.92,3.357,7.825,5.852c1.905,2.496,3.242,5.534,4.015,9.117
		c0.77,3.585,1.156,7.553,1.156,11.907v43.275h-19.324V72.792c0-5.806-0.907-10.139-2.722-12.996
		c-1.815-2.858-5.035-4.287-9.662-4.287c-5.263,0-9.072,1.565-11.431,4.695c-2.36,3.13-3.538,8.279-3.538,15.445v36.879h-19.324
		V42.173H200.776z"/>
	<path fill="#EE3F62" d="M261.061,31.286V15.364h19.324v15.922H261.061z M280.385,42.173v70.355h-19.324V42.173H280.385z"/>
	<path fill="#EE3F62" d="M311.819,42.173v9.525h0.272c2.539-3.627,5.601-6.44,9.186-8.438c3.583-1.994,7.689-2.993,12.315-2.993
		c4.444,0,8.506,0.863,12.18,2.585c3.675,1.725,6.465,4.764,8.369,9.118c2.086-3.083,4.921-5.805,8.506-8.165
		c3.583-2.358,7.825-3.538,12.724-3.538c3.719,0,7.166,0.455,10.343,1.36c3.175,0.908,5.896,2.36,8.165,4.354
		c2.267,1.997,4.036,4.606,5.308,7.825c1.269,3.222,1.905,7.1,1.905,11.636v47.085h-19.324V72.655c0-2.357-0.092-4.58-0.272-6.668
		c-0.183-2.086-0.681-3.899-1.497-5.443c-0.816-1.542-2.02-2.767-3.606-3.674c-1.588-0.906-3.742-1.361-6.464-1.361
		s-4.922,0.523-6.6,1.565c-1.68,1.044-2.994,2.404-3.947,4.082c-0.952,1.68-1.588,3.585-1.904,5.716
		c-0.319,2.133-0.477,4.286-0.477,6.464v39.192h-19.324V73.063c0-2.086-0.047-4.15-0.136-6.191
		c-0.092-2.041-0.477-3.923-1.157-5.647c-0.681-1.723-1.815-3.106-3.402-4.15c-1.588-1.042-3.925-1.565-7.008-1.565
		c-0.908,0-2.109,0.204-3.606,0.612s-2.949,1.181-4.354,2.313c-1.408,1.136-2.609,2.769-3.606,4.899
		c-0.999,2.133-1.497,4.922-1.497,8.369v40.825h-19.324V42.173H311.819z"/>
	<path fill="#EE3F62" d="M414.154,62.109c1.723-4.581,4.172-8.482,7.349-11.704c3.175-3.219,6.985-5.715,11.431-7.484
		c4.444-1.77,9.435-2.653,14.97-2.653c5.532,0,10.547,0.884,15.037,2.653c4.491,1.77,8.322,4.266,11.499,7.484
		c3.175,3.222,5.625,7.123,7.349,11.704c1.723,4.582,2.586,9.685,2.586,15.309c0,5.627-0.863,10.706-2.586,15.242
		c-1.724,4.537-4.174,8.416-7.349,11.635c-3.177,3.222-7.008,5.694-11.499,7.417c-4.49,1.723-9.505,2.586-15.037,2.586
		c-5.535,0-10.525-0.863-14.97-2.586c-4.445-1.723-8.256-4.195-11.431-7.417c-3.177-3.219-5.626-7.098-7.349-11.635
		c-1.725-4.536-2.586-9.615-2.586-15.242C411.568,71.794,412.43,66.691,414.154,62.109z M431.709,85.651
		c0.545,2.678,1.474,5.082,2.79,7.213c1.314,2.133,3.062,3.834,5.239,5.103c2.178,1.272,4.899,1.905,8.165,1.905
		s6.009-0.633,8.233-1.905c2.222-1.269,3.991-2.97,5.307-5.103c1.314-2.131,2.246-4.535,2.79-7.213
		c0.545-2.675,0.816-5.42,0.816-8.233c0-2.811-0.271-5.579-0.816-8.301c-0.544-2.722-1.476-5.124-2.79-7.213
		c-1.315-2.085-3.085-3.786-5.307-5.103c-2.225-1.314-4.968-1.974-8.233-1.974s-5.987,0.659-8.165,1.974
		c-2.178,1.316-3.925,3.018-5.239,5.103c-1.316,2.089-2.245,4.491-2.79,7.213c-0.544,2.722-0.816,5.49-0.816,8.301
		C430.893,80.231,431.165,82.977,431.709,85.651z"/>
</g>
<g>
	<path fill="#EE3F62" d="M23.833,76.701v4.908h0.14c1.309-1.869,2.887-3.319,4.733-4.348c1.847-1.027,3.962-1.543,6.347-1.543
		c2.289,0,4.382,0.445,6.275,1.333s3.331,2.454,4.312,4.698c1.075-1.589,2.535-2.991,4.383-4.208
		c1.847-1.215,4.032-1.823,6.557-1.823c1.916,0,3.692,0.234,5.329,0.701c1.636,0.468,3.038,1.217,4.207,2.244
		c1.168,1.029,2.08,2.373,2.735,4.032c0.654,1.66,0.981,3.658,0.981,5.995v24.263h-9.957V92.408c0-1.215-0.048-2.36-0.141-3.436
		c-0.094-1.075-0.351-2.01-0.771-2.806c-0.421-0.794-1.041-1.425-1.858-1.893c-0.818-0.467-1.928-0.702-3.33-0.702
		s-2.537,0.27-3.401,0.807c-0.865,0.538-1.543,1.239-2.033,2.104c-0.491,0.866-0.818,1.848-0.982,2.945
		c-0.164,1.1-0.245,2.209-0.245,3.331v20.195h-9.957V92.618c0-1.074-0.024-2.139-0.07-3.19c-0.047-1.052-0.245-2.021-0.596-2.91
		c-0.351-0.887-0.937-1.601-1.754-2.139c-0.818-0.537-2.022-0.807-3.611-0.807c-0.468,0-1.087,0.105-1.857,0.316
		c-0.771,0.21-1.521,0.607-2.244,1.191c-0.726,0.585-1.345,1.427-1.858,2.524c-0.515,1.1-0.771,2.537-0.771,4.312v21.037h-9.957
		V76.701H23.833z"/>
	<path fill="#EE3F62" d="M76.635,71.091v-8.204h9.957v8.204H76.635z M86.592,76.701v36.253h-9.957V76.701H86.592z"/>
</g>
</svg>
