<svg xmlns="http://www.w3.org/2000/svg" viewBox="0 0 20 19.1"><defs><style>.cls-1{fill:#fff;}</style></defs><title>star</title><g id="Capa_2" data-name="Capa 2"><g id="Layer_1" data-name="Layer 1"><path class="cls-1" d="M20,7.22a.56.56,0,0,0-.45-.38L13.29,6,10.48.31A.55.55,0,0,0,10,0h0a.55.55,0,0,0-.5.31L6.71,6,.48,6.9A.56.56,0,0,0,0,7.28a.55.55,0,0,0,.14.57L4.7,12.23l-1,6.21a.56.56,0,0,0,.55.65A.52.52,0,0,0,4.46,19l5.57-3L15.61,19a.58.58,0,0,0,.25.06h0a.56.56,0,0,0,.55-.55.45.45,0,0,0,0-.13L15.33,12.2l4.5-4.41A.54.54,0,0,0,20,7.22Zm-5.62,4.39a.55.55,0,0,0-.16.49l.94,5.39L10.28,15a.56.56,0,0,0-.52,0L4.93,17.52l.91-5.4a.55.55,0,0,0-.16-.49L1.75,7.83,7.17,7a.55.55,0,0,0,.42-.3L10,1.81l2.44,4.9a.56.56,0,0,0,.42.3l5.42.77Z"/></g></g></svg>