<svg xmlns="http://www.w3.org/2000/svg" viewBox="0 0 67.87 67.87"><defs><style>.cls-1{fill:#ee3f62;}</style></defs><title>3</title><g id="Capa_2" data-name="Capa 2"><g id="Layer_1" data-name="Layer 1"><path class="cls-1" d="M109.38-244a4.72,4.72,0,0,1-4.73,4.72A4.72,4.72,0,0,1,99.93-244a4.73,4.73,0,0,1,4.72-4.72A4.73,4.73,0,0,1,109.38-244Z" transform="translate(-80 268)"/><path class="cls-1" d="M128.26-244a4.72,4.72,0,0,1-4.72,4.72,4.72,4.72,0,0,1-4.72-4.72,4.72,4.72,0,0,1,4.72-4.72A4.72,4.72,0,0,1,128.26-244Z" transform="translate(-80 268)"/><path class="cls-1" d="M113.93-200.13A34,34,0,0,1,80-234.07,34,34,0,0,1,113.93-268a34,34,0,0,1,33.94,33.93A34,34,0,0,1,113.93-200.13Zm0-64.24a30.33,30.33,0,0,0-30.3,30.3,30.33,30.33,0,0,0,30.3,30.31,30.34,30.34,0,0,0,30.31-30.31A30.33,30.33,0,0,0,113.93-264.37Z" transform="translate(-80 268)"/><path class="cls-1" d="M123.38-220.39H104.49a1.52,1.52,0,0,1-1.63-1.5,1.52,1.52,0,0,1,1.63-1.5h18.89a1.52,1.52,0,0,1,1.63,1.5A1.52,1.52,0,0,1,123.38-220.39Z" transform="translate(-80 268)"/></g></g></svg>