<?xml version="1.0" encoding="UTF-8"?>
<svg width="80px" height="80px" viewBox="0 0 80 80" version="1.1" xmlns="http://www.w3.org/2000/svg" xmlns:xlink="http://www.w3.org/1999/xlink">
    <!-- Generator: Sketch 46.2 (44496) - http://www.bohemiancoding.com/sketch -->
    <title>Copia de 5</title>
    <desc>Created with Sketch.</desc>
    <defs></defs>
    <g id="Page-1" stroke="none" stroke-width="1" fill="none" fill-rule="evenodd">
        <g id="Copia-de-5" fill-rule="nonzero" fill="#F06E30">
            <path d="M34.1463294,27.7934621 C34.1509198,29.9647399 32.8465053,31.9247732 30.8418205,32.7588679 C28.8371357,33.5929626 26.5273622,33.1366945 24.9904084,31.6029914 C23.4534545,30.0692883 22.9922986,27.7604876 23.8221495,25.7540438 C24.6520003,23.7476 26.6092703,22.4390413 28.7805548,22.4390364 C30.2026026,22.4360236 31.567439,22.9988187 32.5740444,24.003295 C33.5806497,25.0077713 34.1463326,26.3714125 34.1463294,27.7934621 L34.1463294,27.7934621 Z" id="Shape"></path>
            <circle id="Oval" cx="51.2195122" cy="27.804878" r="5.36585366"></circle>
            <path d="M57.2781205,42.9983899 C58.3891451,42.9587814 59.4673011,43.3825829 60.2589753,44.1701041 C61.0506496,44.9576253 61.4859618,46.0393525 61.4625141,47.1608325 C61.4625141,51.4544696 56.9471515,67.3170732 40.2923193,67.3170732 C23.6374871,67.3170732 19.5121951,50.6195957 19.5121951,47.1489057 C19.540948,44.884247 21.3126238,43.0338924 23.5547449,42.9268293 L57.2781205,42.9983899 Z" id="Shape"></path>
            <path d="M40,80 C17.90861,80 2.70686374e-15,62.09139 0,40 C-2.70481928e-15,17.90861 17.90861,4.05825115e-15 40,0 C62.09139,-4.05620669e-15 80,17.90861 80,40 C79.9610779,62.0752478 62.0752478,79.9610779 40,80 L40,80 Z M40,4.28992339 C25.5507831,4.28992418 12.524551,12.9945522 6.9961767,26.3443442 C1.46780243,39.6941362 4.52617404,55.0596702 14.7449988,65.2751236 C24.9638237,75.490577 40.3303661,78.5438781 53.6783331,73.011099 C67.0263001,67.4783199 75.7266293,54.4492161 75.7218621,40 C75.7023623,20.2813509 59.7186545,4.30291649 40,4.28992339 Z" id="Shape"></path>
        </g>
    </g>
</svg>