<?xml version="1.0" encoding="utf-8"?>
<!-- Generator: Adobe Illustrator 16.0.0, SVG Export Plug-In . SVG Version: 6.00 Build 0)  -->
<!DOCTYPE svg PUBLIC "-//W3C//DTD SVG 1.1//EN" "http://www.w3.org/Graphics/SVG/1.1/DTD/svg11.dtd">
<svg version="1.1" id="Layer_1" xmlns="http://www.w3.org/2000/svg" xmlns:xlink="http://www.w3.org/1999/xlink" x="0px" y="0px"
	 width="98.979px" height="98.98px" viewBox="0 0 98.979 98.98" enable-background="new 0 0 98.979 98.98" xml:space="preserve">
<g>
	<path fill="#FFFFFF" d="M49.491,0C22.156,0,0,22.158,0,49.491S22.156,98.98,49.491,98.98c27.332,0,49.488-22.156,49.488-49.489
		S76.823,0,49.491,0z M55.099,42.727c3.135-8.41,7.754-12.702,12.373-12.702s9.238,4.292,12.372,12.702
		c0.33,0.824-1.32,2.477-2.144,1.484c-2.971-3.132-6.6-4.452-10.229-4.452s-7.261,1.32-10.229,4.452
		C56.419,45.037,54.771,43.551,55.099,42.727z M18.972,42.727c3.135-8.41,7.752-12.702,12.372-12.702
		c4.619,0,9.238,4.292,12.372,12.702c0.331,0.824-1.154,2.477-2.145,1.484c-2.969-3.132-6.598-4.452-10.228-4.452
		c-3.631,0-7.259,1.32-10.229,4.452C20.29,45.037,18.642,43.551,18.972,42.727z M56.419,80H42.562
		c-23.59,0-29.363-5.356-29.363-21.192c0-1.319,1.153-3.173,3.957-3.671c7.261-0.988,18.312-2.245,32.336-2.245
		c14.021,0,25.072,1.104,32.332,2.092c2.97,0.498,3.959,2.53,3.959,3.846C85.782,74.668,80.008,80,56.419,80z"/>
	<g>
		<path fill="#FFFFFF" d="M77.368,59.721c0.332-0.826-0.164-1.65-0.823-1.816c0,0-12.208-1.813-27.054-1.813
			c-14.849,0-27.057,1.813-27.057,1.813c-0.824,0.166-1.153,0.99-0.824,1.816l1.814,4.783c0.332,0.824,1.32,1.482,2.145,1.482
			h48.005c0.826,0,1.815-0.658,2.146-1.482L77.368,59.721"/>
		<path fill="#FFFFFF" d="M49.491,75.886c10.558,0,25.569,0,25.072-3.463c0-0.661-0.163-1.321-0.494-2.144
			c-0.33-0.828-0.495-1.157-2.31-1.157c-3.96,0-41.735,0-44.706,0c-1.812,0-1.979,0.165-2.309,1.157
			c-0.165,0.822-0.329,1.482-0.495,2.144C23.921,75.886,38.932,75.886,49.491,75.886"/>
	</g>
</g>
</svg>
