<?xml version="1.0" encoding="UTF-8"?>
<svg width="68px" height="68px" viewBox="0 0 68 68" version="1.1" xmlns="http://www.w3.org/2000/svg" xmlns:xlink="http://www.w3.org/1999/xlink">
    <!-- Generator: Sketch 46.2 (44496) - http://www.bohemiancoding.com/sketch -->
    <title>Copia de 5</title>
    <desc>Created with Sketch.</desc>
    <defs></defs>
    <g id="Page-1" stroke="none" stroke-width="1" fill="none" fill-rule="evenodd">
        <g id="Copia-de-5" transform="translate(-1.000000, -1.000000)" fill-rule="nonzero" fill="#C9C9C9">
            <path d="M30.38,25 C30.3840465,26.9140112 29.2341882,28.6418076 27.4670325,29.3770736 C25.6998768,30.1123395 23.6637814,29.7101329 22.3089366,28.3581525 C20.9540919,27.0061721 20.5475769,24.9709325 21.2791013,23.2022246 C22.0106256,21.4335168 23.7359845,20.2800043 25.65,20.28 C26.9035536,20.2773442 28.1066746,20.7734558 28.9940103,21.6589155 C29.881346,22.5443752 30.3800028,23.7464436 30.38,25 L30.38,25 Z" id="Shape"></path>
            <circle id="Oval" cx="44.54" cy="25" r="4.72"></circle>
            <path d="M49.3,37.36 C50.2399276,37.3267903 51.1520483,37.6821267 51.8218053,38.3424238 C52.4915623,39.002721 52.8598368,39.9096951 52.84,40.85 C52.84,44.45 49.02,57.75 34.93,57.75 C20.84,57.75 17.35,43.75 17.35,40.84 C17.374325,38.9411969 18.873164,37.389767 20.77,37.3 L49.3,37.36 Z" id="Shape"></path>
            <path d="M34.93,68.87 C16.1854556,68.87 0.99,53.6745444 0.99,34.93 C0.99,16.1854556 16.1854556,0.99 34.93,0.99 C53.6745444,0.99 68.87,16.1854556 68.87,34.93 C68.8369746,53.6608478 53.6608478,68.8369746 34.93,68.87 L34.93,68.87 Z M34.93,4.63 C22.6698395,4.63000067 11.6170815,12.0158776 6.92625593,23.343176 C2.23543036,34.6704745 4.83045867,47.7081302 13.5011315,56.3759424 C22.1718044,65.0437545 35.2103156,67.6344806 46.5360656,62.9399175 C57.8618156,58.2453544 65.2440449,47.1901598 65.24,34.93 C65.2234544,18.1987262 51.6612783,4.64102465 34.93,4.63 Z" id="Shape"></path>
        </g>
    </g>
</svg>