<svg xmlns="http://www.w3.org/2000/svg" viewBox="0 0 68.03 68.03"><defs><style>.cls-1{fill:#fff;}</style></defs><title>5_1</title><g id="Capa_2" data-name="Capa 2"><g id="Layer_1" data-name="Layer 1"><path class="cls-1" d="M34,68A34,34,0,1,1,68,34,34.05,34.05,0,0,1,34,68Zm0-64.4A30.39,30.39,0,1,0,64.4,34,30.42,30.42,0,0,0,34,3.63Z"/><path class="cls-1" d="M37,20.89a7.52,7.52,0,0,1-6.13,0,18.26,18.26,0,0,0-6.93-1.84c-2.7-.23-8.36-.23-11.14.8a4.89,4.89,0,0,0-1,.4c-.08.08-.16.16-.16.48v.4c0,.79-.08.47.48.79,1.12.64,1.75,2.31,2.07,4.62C14.71,29.88,16.38,32,19,33a10.81,10.81,0,0,0,7.72-.08,7.35,7.35,0,0,0,3.5-2.79c1.68-2.39,1.12-3.9,2-6,.72-1.83,2.79-1.83,3.59,0,.87,2.07.31,3.58,2,6a7.79,7.79,0,0,0,3.5,2.79A10.81,10.81,0,0,0,49,33c2.71-1,4.3-3.11,4.78-6.45.32-2.31,1-4,2.07-4.62.56-.32.48,0,.48-.79v-.4c0-.32,0-.4-.24-.48a4.89,4.89,0,0,0-1-.4c-2.86-1-8.52-1-11.14-.8a19.12,19.12,0,0,0-7,1.84"/><path class="cls-1" d="M34,49.52A14.31,14.31,0,0,1,21.3,41.65c-.32-.7-.59-.84-1-.7s-.52.58-.45,1.18C20,44,23.75,53.19,34,53.19S48.08,43.84,48.21,42A1,1,0,0,0,47.68,41a.72.72,0,0,0-.81.4C46.5,42,42.86,49.52,34,49.52Z"/></g></g></svg>