<?xml version="1.0" encoding="utf-8"?>
<!-- Generator: Adobe Illustrator 21.0.2, SVG Export Plug-In . SVG Version: 6.00 Build 0)  -->
<svg version="1.1" id="Layer_1" xmlns="http://www.w3.org/2000/svg" xmlns:xlink="http://www.w3.org/1999/xlink" x="0px" y="0px"
	 viewBox="0 0 500 120.6" style="enable-background:new 0 0 500 120.6;" xml:space="preserve">
<style type="text/css">
	.st0{fill:#FFFFFF;}
</style>
<g>
	<path class="st0" d="M106.1,63.8c0.3-4.5,1.4-8.3,3.4-11.3c2-3,4.5-5.4,7.6-7.2c3.1-1.8,6.6-3.1,10.4-3.9c3.9-0.8,7.7-1.2,11.6-1.2
		c3.5,0,7.1,0.3,10.8,0.7c3.6,0.5,6.9,1.5,9.9,2.9c3,1.5,5.4,3.5,7.3,6.1c1.9,2.6,2.9,6,2.9,10.3v36.6c0,3.2,0.2,6.2,0.5,9.1
		c0.4,2.9,1,5.1,1.9,6.5h-19.6c-0.4-1.1-0.7-2.2-0.9-3.3c-0.2-1.1-0.4-2.3-0.5-3.5c-3.1,3.2-6.7,5.4-10.9,6.7
		c-4.2,1.3-8.4,1.9-12.8,1.9c-3.4,0-6.5-0.4-9.4-1.2c-2.9-0.8-5.4-2.1-7.6-3.8c-2.2-1.7-3.9-3.9-5.1-6.5c-1.2-2.6-1.8-5.8-1.8-9.4
		c0-4,0.7-7.3,2.1-9.9c1.4-2.6,3.2-4.6,5.4-6.2c2.2-1.5,4.8-2.7,7.6-3.5c2.9-0.8,5.7-1.4,8.6-1.8c2.9-0.5,5.8-0.8,8.6-1.1
		c2.8-0.3,5.3-0.7,7.5-1.2c2.2-0.5,3.9-1.3,5.2-2.4c1.3-1,1.9-2.6,1.8-4.6c0-2.1-0.3-3.7-1-5s-1.6-2.2-2.7-2.9
		c-1.1-0.7-2.4-1.1-3.9-1.4c-1.5-0.2-3.1-0.3-4.8-0.3c-3.8,0-6.8,0.8-9,2.4c-2.2,1.6-3.4,4.4-3.8,8.2L106.1,63.8L106.1,63.8z
		 M150.7,78.1c-0.8,0.7-1.8,1.3-3.1,1.7c-1.2,0.4-2.5,0.7-3.9,1c-1.4,0.3-2.9,0.5-4.4,0.7c-1.5,0.2-3.1,0.4-4.6,0.7
		c-1.5,0.3-2.9,0.6-4.3,1.1c-1.4,0.5-2.6,1.1-3.7,1.8c-1,0.8-1.9,1.7-2.5,2.9c-0.6,1.2-1,2.7-1,4.5c0,1.7,0.3,3.2,1,4.4
		c0.6,1.2,1.5,2.1,2.6,2.8c1.1,0.7,2.4,1.2,3.8,1.4c1.4,0.3,2.9,0.4,4.5,0.4c3.8,0,6.8-0.6,8.8-1.9c2.1-1.3,3.6-2.8,4.6-4.6
		c1-1.8,1.6-3.6,1.8-5.4c0.2-1.8,0.3-3.3,0.3-4.4L150.7,78.1L150.7,78.1z M163.9,5.7l-22.2,24.1h-13.5l14.4-24.1H163.9z"/>
	<path class="st0" d="M200.8,42.2V52h0.4c2.4-4.1,5.6-7.1,9.5-8.9c3.9-1.9,7.9-2.8,12-2.8c5.2,0,9.4,0.7,12.7,2.1
		c3.3,1.4,5.9,3.4,7.8,5.9c1.9,2.5,3.2,5.5,4,9.1c0.8,3.6,1.2,7.6,1.2,11.9v43.3h-19.3V72.8c0-5.8-0.9-10.1-2.7-13
		c-1.8-2.9-5-4.3-9.7-4.3c-5.3,0-9.1,1.6-11.4,4.7c-2.4,3.1-3.5,8.3-3.5,15.4v36.9h-19.3V42.2H200.8z"/>
	<path class="st0" d="M261.1,31.3V15.4h19.3v15.9H261.1z M280.4,42.2v70.4h-19.3V42.2H280.4z"/>
	<path class="st0" d="M311.8,42.2v9.5h0.3c2.5-3.6,5.6-6.4,9.2-8.4c3.6-2,7.7-3,12.3-3c4.4,0,8.5,0.9,12.2,2.6
		c3.7,1.7,6.5,4.8,8.4,9.1c2.1-3.1,4.9-5.8,8.5-8.2c3.6-2.4,7.8-3.5,12.7-3.5c3.7,0,7.2,0.5,10.3,1.4c3.2,0.9,5.9,2.4,8.2,4.4
		c2.3,2,4,4.6,5.3,7.8c1.3,3.2,1.9,7.1,1.9,11.6v47.1h-19.3V72.7c0-2.4-0.1-4.6-0.3-6.7c-0.2-2.1-0.7-3.9-1.5-5.4
		c-0.8-1.5-2-2.8-3.6-3.7c-1.6-0.9-3.7-1.4-6.5-1.4s-4.9,0.5-6.6,1.6c-1.7,1-3,2.4-3.9,4.1c-1,1.7-1.6,3.6-1.9,5.7
		c-0.3,2.1-0.5,4.3-0.5,6.5v39.2h-19.3V73.1c0-2.1,0-4.2-0.1-6.2c-0.1-2-0.5-3.9-1.2-5.6c-0.7-1.7-1.8-3.1-3.4-4.2
		c-1.6-1-3.9-1.6-7-1.6c-0.9,0-2.1,0.2-3.6,0.6s-2.9,1.2-4.4,2.3c-1.4,1.1-2.6,2.8-3.6,4.9c-1,2.1-1.5,4.9-1.5,8.4v40.8h-19.3V42.2
		H311.8z"/>
	<path class="st0" d="M414.2,62.1c1.7-4.6,4.2-8.5,7.3-11.7c3.2-3.2,7-5.7,11.4-7.5c4.4-1.8,9.4-2.7,15-2.7c5.5,0,10.5,0.9,15,2.7
		c4.5,1.8,8.3,4.3,11.5,7.5c3.2,3.2,5.6,7.1,7.3,11.7c1.7,4.6,2.6,9.7,2.6,15.3c0,5.6-0.9,10.7-2.6,15.2c-1.7,4.5-4.2,8.4-7.3,11.6
		c-3.2,3.2-7,5.7-11.5,7.4c-4.5,1.7-9.5,2.6-15,2.6c-5.5,0-10.5-0.9-15-2.6s-8.3-4.2-11.4-7.4c-3.2-3.2-5.6-7.1-7.3-11.6
		c-1.7-4.5-2.6-9.6-2.6-15.2C411.6,71.8,412.4,66.7,414.2,62.1z M431.7,85.7c0.5,2.7,1.5,5.1,2.8,7.2c1.3,2.1,3.1,3.8,5.2,5.1
		c2.2,1.3,4.9,1.9,8.2,1.9s6-0.6,8.2-1.9c2.2-1.3,4-3,5.3-5.1c1.3-2.1,2.2-4.5,2.8-7.2c0.5-2.7,0.8-5.4,0.8-8.2
		c0-2.8-0.3-5.6-0.8-8.3c-0.5-2.7-1.5-5.1-2.8-7.2c-1.3-2.1-3.1-3.8-5.3-5.1c-2.2-1.3-5-2-8.2-2s-6,0.7-8.2,2
		c-2.2,1.3-3.9,3-5.2,5.1c-1.3,2.1-2.2,4.5-2.8,7.2c-0.5,2.7-0.8,5.5-0.8,8.3C430.9,80.2,431.2,83,431.7,85.7z"/>
</g>
<g>
	<path class="st0" d="M23.8,76.7v4.9H24c1.3-1.9,2.9-3.3,4.7-4.3c1.8-1,4-1.5,6.3-1.5c2.3,0,4.4,0.4,6.3,1.3s3.3,2.5,4.3,4.7
		c1.1-1.6,2.5-3,4.4-4.2c1.8-1.2,4-1.8,6.6-1.8c1.9,0,3.7,0.2,5.3,0.7c1.6,0.5,3,1.2,4.2,2.2c1.2,1,2.1,2.4,2.7,4c0.7,1.7,1,3.7,1,6
		V113h-10V92.4c0-1.2,0-2.4-0.1-3.4c-0.1-1.1-0.4-2-0.8-2.8c-0.4-0.8-1-1.4-1.9-1.9c-0.8-0.5-1.9-0.7-3.3-0.7s-2.5,0.3-3.4,0.8
		c-0.9,0.5-1.5,1.2-2,2.1c-0.5,0.9-0.8,1.8-1,2.9c-0.2,1.1-0.2,2.2-0.2,3.3V113h-10V92.6c0-1.1,0-2.1-0.1-3.2c0-1.1-0.2-2-0.6-2.9
		c-0.4-0.9-0.9-1.6-1.8-2.1c-0.8-0.5-2-0.8-3.6-0.8c-0.5,0-1.1,0.1-1.9,0.3c-0.8,0.2-1.5,0.6-2.2,1.2c-0.7,0.6-1.3,1.4-1.9,2.5
		c-0.5,1.1-0.8,2.5-0.8,4.3v21h-10V76.7H23.8z"/>
	<path class="st0" d="M76.6,71.1v-8.2h10v8.2H76.6z M86.6,76.7V113h-10V76.7H86.6z"/>
</g>
</svg>
