<svg xmlns="http://www.w3.org/2000/svg" viewBox="0 0 283.47 215.15"><defs><style>.cls-1,.cls-10,.cls-11,.cls-12,.cls-2,.cls-3,.cls-4,.cls-5,.cls-6,.cls-7,.cls-8,.cls-9{fill:#fff;}.cls-2{opacity:0.53;}.cls-10,.cls-11,.cls-12,.cls-2,.cls-3,.cls-4,.cls-5,.cls-6,.cls-7,.cls-8,.cls-9{isolation:isolate;}.cls-3{opacity:0.36;}.cls-4{opacity:0.92;}.cls-5{opacity:0.85;}.cls-6{opacity:0.87;}.cls-7{opacity:0.73;}.cls-8{opacity:0.67;}.cls-9{opacity:0.61;}.cls-10{opacity:0.44;}.cls-11{opacity:0.31;}.cls-12{opacity:0.52;}</style></defs><title>pwc</title><g id="Capa_2" data-name="Capa 2"><g id="Layer_1" data-name="Layer 1"><path class="cls-1" d="M191.94,142.1c-9.12,1.47-13.79,8.21-13.79,20.07s6.21,19.91,15.74,19.91c4.43,0,8.46-1.47,16.92-5.62v9.65c-10.16,4.66-16.14,6.1-24.33,6.1-8.86,0-15.1-2.35-20.19-7.54a27.3,27.3,0,0,1-7.83-19.79c0-17.08,12.64-28.63,31.11-28.63,12.27,0,20.7,5.6,20.7,13.83,0,5.3-3.93,8.95-9.75,8.95a16.06,16.06,0,0,1-8.59-2.61V142.1Z"/><path class="cls-1" d="M146.92,164.88C155.1,154.57,158,150.41,158,145.35a9.1,9.1,0,0,0-9.35-9.1,10.85,10.85,0,0,0-7.7,3.17v21l-13.4,17.86V137.57H114.79L93.61,172.69V137.57H86.29l-19.23,4.69v4.92l10.49,1.06V191.3H91.1l20.32-33.39V191.3h14.85Z"/><path class="cls-1" d="M26.57,184.67c1.44.07,2.08.07,3,.07,10.92,0,16.77-6.81,16.77-19.86,0-11-4.79-16.92-13.63-16.92a53.11,53.11,0,0,0-6.13.56v36.16Zm0,23.53,8.79,2,0,5H.88v-5l7.86-2V148H0v-5.17l21.1-6.41h5.48v7.19c9.88-5.88,13.27-6.92,18.34-6.92,11.7,0,20.34,10.8,20.34,25.74,0,17.28-11.53,28.9-29.69,28.9a84.11,84.11,0,0,1-9-.53v17.43Z"/><rect class="cls-2" x="270.07" y="65.99" width="13.4" height="26.39"/><rect class="cls-3" x="243.36" y="26.38" width="26.71" height="39.61"/><rect class="cls-4" x="127.56" y="92.39" width="52.79" height="13.2"/><rect class="cls-4" x="180.36" y="65.99" width="32.93" height="26.39"/><rect class="cls-5" x="180.36" y="52.76" width="32.93" height="13.23"/><rect class="cls-6" x="213.28" y="65.99" width="19.72" height="26.39"/><polygon class="cls-7" points="213.28 65.99 233.01 65.99 233.01 26.38 180.36 26.38 180.36 52.77 213.28 52.77 213.28 65.99"/><rect class="cls-7" x="233.01" y="65.99" width="10.36" height="26.39"/><rect class="cls-8" x="243.36" y="65.99" width="26.71" height="26.39"/><rect class="cls-9" x="180.36" y="10.31" width="52.65" height="16.07"/><rect class="cls-10" x="180.36" width="52.65" height="10.31"/><rect class="cls-11" x="233.01" y="10.31" width="10.36" height="16.07"/><rect class="cls-12" x="233.01" y="26.38" width="10.36" height="39.61"/></g></g></svg>