<svg xmlns="http://www.w3.org/2000/svg" viewBox="0 0 17.01 20"><defs><style>.cls-1{fill:#fff;}</style></defs><title>user-icon</title><g id="Capa_2" data-name="Capa 2"><g id="Layer_1" data-name="Layer 1"><path class="cls-1" d="M8.43,10.78h.13a3.82,3.82,0,0,0,2.92-1.26c1.59-1.8,1.33-4.88,1.3-5.17a4.23,4.23,0,0,0-2-3.76A4.61,4.61,0,0,0,8.55,0H8.48A4.6,4.6,0,0,0,6.25.57a4.23,4.23,0,0,0-2,3.77c0,.29-.29,3.38,1.3,5.17A3.81,3.81,0,0,0,8.43,10.78ZM5.32,4.44s0,0,0,0c.14-3,2.24-3.29,3.15-3.29h0c1.12,0,3,.48,3.15,3.29a.09.09,0,0,0,0,0s.29,2.84-1,4.33a2.71,2.71,0,0,1-2.13.89h0a2.71,2.71,0,0,1-2.13-.89C5,7.3,5.32,4.47,5.32,4.44Z"/><path class="cls-1" d="M17,15.89h0s0-.07,0-.1c0-.82-.08-2.74-1.88-3.35h0a12,12,0,0,1-3.44-1.57.56.56,0,0,0-.64.91,12.89,12.89,0,0,0,3.78,1.73c1,.34,1.07,1.38,1.1,2.32a.88.88,0,0,0,0,.1,7.52,7.52,0,0,1-.09,1.28,15.23,15.23,0,0,1-7.3,1.7,15.33,15.33,0,0,1-7.31-1.7,7.06,7.06,0,0,1-.09-1.28s0-.07,0-.1c0-.94.14-2,1.1-2.32A13,13,0,0,0,6,11.75a.56.56,0,0,0-.64-.91A11.83,11.83,0,0,1,1.92,12.4h0C.08,13,0,15,0,15.77a.88.88,0,0,1,0,.1H0a6.36,6.36,0,0,0,.21,1.88A.54.54,0,0,0,.43,18a15.66,15.66,0,0,0,8.08,2,15.73,15.73,0,0,0,8.08-2,.56.56,0,0,0,.21-.26A6.68,6.68,0,0,0,17,15.89Z"/></g></g></svg>