<?xml version="1.0" encoding="utf-8"?>
<!-- Generator: Adobe Illustrator 16.0.0, SVG Export Plug-In . SVG Version: 6.00 Build 0)  -->
<!DOCTYPE svg PUBLIC "-//W3C//DTD SVG 1.1//EN" "http://www.w3.org/Graphics/SVG/1.1/DTD/svg11.dtd">
<svg version="1.1" id="Layer_1" xmlns="http://www.w3.org/2000/svg" xmlns:xlink="http://www.w3.org/1999/xlink" x="0px" y="0px"
	 width="40.5px" height="41.75px" viewBox="0 0 40.5 41.75" enable-background="new 0 0 40.5 41.75" xml:space="preserve">
<g>
	<g>
		<path fill="#4E5568" d="M19.65,36.569h-9.248c-2.511,0-4.549-2.047-4.549-4.553V9.735c0-2.513,2.044-4.553,4.549-4.553h9.397
			c0.564,0,1.016-0.451,1.016-1.016c0-0.563-0.451-1.016-1.016-1.016h-9.397c-3.633,0-6.582,2.958-6.582,6.584v22.281
			c0,3.634,2.959,6.583,6.582,6.583h9.248c0.564,0,1.016-0.451,1.016-1.016C20.666,37.02,20.205,36.569,19.65,36.569z"/>
		<path fill="#4E5568" d="M36.38,20.162l-6.455-6.455c-0.397-0.399-1.039-0.399-1.436,0c-0.399,0.397-0.399,1.039,0,1.437
			l4.724,4.725H12.607c-0.564,0-1.016,0.452-1.016,1.017c0,0.562,0.451,1.016,1.016,1.016h20.606l-4.724,4.724
			c-0.399,0.398-0.399,1.038,0,1.437c0.195,0.196,0.457,0.303,0.713,0.303s0.52-0.1,0.716-0.303l6.455-6.455
			C36.781,21.199,36.781,20.552,36.38,20.162z"/>
	</g>
</g>
</svg>
