<svg xmlns="http://www.w3.org/2000/svg" viewBox="0 0 67.87 67.87"><defs><style>.cls-1{fill:#fdbd10;}</style></defs><title>muyfeliz</title><g id="Capa_2" data-name="Capa 2"><g id="Layer_1" data-name="Layer 1"><path class="cls-1" d="M29.38,24a4.73,4.73,0,1,1-4.73-4.72A4.72,4.72,0,0,1,29.38,24Z"/><circle class="cls-1" cx="43.54" cy="24" r="4.72"/><path class="cls-1" d="M48.3,36.36a3.42,3.42,0,0,1,3.54,3.49c0,3.6-3.82,16.9-17.91,16.9s-17.58-14-17.58-16.91a3.59,3.59,0,0,1,3.42-3.54Z"/><path class="cls-1" d="M33.93,67.87A33.94,33.94,0,1,1,67.87,33.93,34,34,0,0,1,33.93,67.87Zm0-64.24a30.31,30.31,0,1,0,30.31,30.3A30.33,30.33,0,0,0,33.93,3.63Z"/></g></g></svg>