<svg xmlns="http://www.w3.org/2000/svg" viewBox="0 0 36 36.02"><defs><style>.cls-1{fill:#4e5568;}</style></defs><title>pop</title><g id="Capa_2" data-name="Capa 2"><g id="Layer_3" data-name="Layer 3"><path class="cls-1" d="M30.73,5.28A18,18,0,0,0,4.08,29.43a6.74,6.74,0,0,1-2.83,3.28,1.68,1.68,0,0,0,.48,3.17A8.8,8.8,0,0,0,3,36H3a11.65,11.65,0,0,0,6.47-2.1A18,18,0,0,0,30.73,5.28Zm-1.44,24A16,16,0,0,1,9.92,31.78a1.07,1.07,0,0,0-.51-.14,1,1,0,0,0-.62.21,9.7,9.7,0,0,1-5.65,2.07,10.26,10.26,0,0,0,3.08-4.26A1,1,0,0,0,6,28.57a16,16,0,1,1,23.25.72Z"/><path class="cls-1" d="M25.54,12.07H10.46a1,1,0,0,0,0,2H25.54a1,1,0,1,0,0-2Z"/><path class="cls-1" d="M25.54,17H10.46a1,1,0,0,0,0,2H25.54a1,1,0,1,0,0-2Z"/><path class="cls-1" d="M25.54,21.92H10.46a1,1,0,0,0,0,2H25.54a1,1,0,1,0,0-2Z"/></g></g></svg>