<?xml version="1.0" encoding="utf-8"?>
<!-- Generator: Adobe Illustrator 16.0.0, SVG Export Plug-In . SVG Version: 6.00 Build 0)  -->
<!DOCTYPE svg PUBLIC "-//W3C//DTD SVG 1.1//EN" "http://www.w3.org/Graphics/SVG/1.1/DTD/svg11.dtd">
<svg version="1.1" id="Layer_1" xmlns="http://www.w3.org/2000/svg" xmlns:xlink="http://www.w3.org/1999/xlink" x="0px" y="0px"
	 width="40.5px" height="62.25px" viewBox="0 0 40.5 62.25" enable-background="new 0 0 40.5 62.25" xml:space="preserve">
<path fill="#4E5568" d="M26.804,40.766C25.261,39.679,24,37.167,24,35.28V9.042c0-2.804-1.537-5-3.5-5s-3.5,2.196-3.5,5v26.152
	c0,1.878-1.362,4.345-2.924,5.387c-0.171,0.114-4.214,2.85-4.214,7.719c0,5.739,4.66,10.409,10.4,10.409
	c5.738,0,10.424-4.67,10.424-10.409C30.685,43.566,26.963,40.878,26.804,40.766z M15.185,42.116C17.301,40.705,19,37.736,19,35.194
	V31.5h0.917c0.553,0,1-0.447,1-1s-0.447-1-1-1H19v-2h0.917c0.553,0,1-0.447,1-1s-0.447-1-1-1H19v-2h0.917c0.553,0,1-0.447,1-1
	s-0.447-1-1-1H19V9.042c0-1.689,0.807-3,1.5-3s1.5,1.311,1.5,3V35.28c0,2.534,1.602,5.533,3.67,6.99
	C25.701,42.292,15.155,42.136,15.185,42.116z"/>
</svg>
