<?xml version="1.0" encoding="UTF-8"?>
<svg width="17px" height="15px" viewBox="0 0 17 15" version="1.1" xmlns="http://www.w3.org/2000/svg" xmlns:xlink="http://www.w3.org/1999/xlink">
    <!-- Generator: Sketch 46.2 (44496) - http://www.bohemiancoding.com/sketch -->
    <title>arrow back</title>
    <desc>Created with Sketch.</desc>
    <defs></defs>
    <g id="Page-1" stroke="none" stroke-width="1" fill="none" fill-rule="evenodd">
        <g id="03-USER-Menus" transform="translate(-18.000000, -52.000000)" fill="#FFFFFF">
            <g id="Page-1" transform="translate(18.000000, 52.000000)">
                <path d="M15.38262,8.88435 C13.6659598,8.88435 12.3784646,8.88435 11.5201345,8.88435 C10.0103376,8.88435 7.74564231,8.88435 4.72604857,8.88435 L9.36947714,12.64435 C9.89404857,13.07435 9.98633429,13.85935 9.56862,14.40435 C9.33062,14.71435 8.97604857,14.87935 8.61662,14.87935 C8.35433429,14.87935 8.08719143,14.78935 7.86376286,14.60935 L0.466334286,8.61935 C0.174905714,8.38435 0.00490571429,8.02935 4.85714286e-05,7.65435 C-0.00480857143,7.27935 0.155477143,6.91935 0.437191429,6.67935 L7.83462,0.28935 C8.34947714,-0.15065 9.11690571,-0.08065 9.54919143,0.44435 C9.97662,0.97435 9.90862,1.76435 9.39862,2.20935 L4.55604857,6.38435 L15.38262,6.38435 C16.0529057,6.38435 16.5969057,6.94435 16.5969057,7.63435 C16.5969057,8.32435 16.0529057,8.88435 15.38262,8.88435 Z" id="arrow-back"></path>
            </g>
        </g>
    </g>
</svg>