<svg xmlns="http://www.w3.org/2000/svg" viewBox="0 0 101.05 101.05"><defs><style>.cls-1{fill:#f2f2f2;}</style></defs><title>happyHeader</title><g id="Capa_2" data-name="Capa 2"><g id="Layer_1" data-name="Layer 1"><path class="cls-1" d="M43.74,35.74a7,7,0,1,1-7-7A7,7,0,0,1,43.74,35.74Z"/><circle class="cls-1" cx="64.82" cy="35.74" r="7.03"/><path class="cls-1" d="M71.91,54.14a5.09,5.09,0,0,1,5.28,5.19c0,5.35-5.7,25.16-26.67,25.16S24.34,63.67,24.34,59.31a5.35,5.35,0,0,1,5.09-5.26C34.71,54.05,66.61,54.14,71.91,54.14Z"/><path class="cls-1" d="M50.52,101.05a50.53,50.53,0,1,1,50.53-50.53A50.58,50.58,0,0,1,50.52,101.05Zm0-95.65A45.13,45.13,0,1,0,95.65,50.52,45.17,45.17,0,0,0,50.52,5.4Z"/></g></g></svg>