<svg xmlns="http://www.w3.org/2000/svg" viewBox="0 0 278.15 61.72"><defs><style>.cls-1{fill:#fff;}</style></defs><title>Recurso 2</title><g id="Capa_2" data-name="Capa 2"><g id="Layer_1" data-name="Layer 1"><path class="cls-1" d="M54.3,31.8a13.28,13.28,0,0,1,2-6.69,13.7,13.7,0,0,1,4.52-4.28A19.77,19.77,0,0,1,67,18.53a35.53,35.53,0,0,1,6.89-.68,47.59,47.59,0,0,1,6.37.44A19.7,19.7,0,0,1,86.15,20a11.62,11.62,0,0,1,4.35,3.58,10.06,10.06,0,0,1,1.7,6.09V51.4a42.61,42.61,0,0,0,.32,5.4,9.64,9.64,0,0,0,1.13,3.87H82a16.48,16.48,0,0,1-.53-2,17.14,17.14,0,0,1-.28-2,14.93,14.93,0,0,1-6.45,4,26,26,0,0,1-7.58,1.13A20.15,20.15,0,0,1,61.64,61a12.64,12.64,0,0,1-4.52-2.26,10.55,10.55,0,0,1-3-3.87A13.16,13.16,0,0,1,53,49.3a12.08,12.08,0,0,1,1.25-5.85,10.45,10.45,0,0,1,3.22-3.67A14.36,14.36,0,0,1,62,37.73a47.59,47.59,0,0,1,5.12-1.09c1.72-.27,3.41-.49,5.08-.65a30.84,30.84,0,0,0,4.43-.72,8,8,0,0,0,3.07-1.41,3.13,3.13,0,0,0,1-2.71,6,6,0,0,0-.61-2.94,4.44,4.44,0,0,0-1.61-1.69,6.3,6.3,0,0,0-2.34-.81,19.75,19.75,0,0,0-2.86-.2A8.7,8.7,0,0,0,68,27a6.46,6.46,0,0,0-2.25,4.84Zm26.45,8.47a5.14,5.14,0,0,1-1.82,1,16.62,16.62,0,0,1-2.34.61c-.83.16-1.7.3-2.62.4s-1.83.24-2.74.41a20.08,20.08,0,0,0-2.54.64,7.55,7.55,0,0,0-2.18,1.09A5.3,5.3,0,0,0,65,46.15a5.55,5.55,0,0,0-.56,2.66A5.36,5.36,0,0,0,65,51.4a4.42,4.42,0,0,0,1.53,1.65,6.77,6.77,0,0,0,2.26.85,14.54,14.54,0,0,0,2.66.24A10.12,10.12,0,0,0,76.71,53a7.55,7.55,0,0,0,2.74-2.7,8.61,8.61,0,0,0,1.1-3.19,22.64,22.64,0,0,0,.2-2.58Z"/><path class="cls-1" d="M110.34,19v5.8h.24a13.07,13.07,0,0,1,5.65-5.28,16.31,16.31,0,0,1,7.09-1.65,19.3,19.3,0,0,1,7.54,1.25,11.17,11.17,0,0,1,4.64,3.47,13.4,13.4,0,0,1,2.38,5.4,34,34,0,0,1,.68,7.05V60.67H127.11V37.12c0-3.44-.53-6-1.61-7.7s-3-2.54-5.72-2.54q-4.68,0-6.78,2.78t-2.1,9.16V60.67H99.45V19Z"/><path class="cls-1" d="M146,3.09h11.45v9.44H146Zm11.45,57.58H146V19h11.45Z"/><path class="cls-1" d="M176,19v5.64h.16a16.46,16.46,0,0,1,5.44-5,14.8,14.8,0,0,1,7.3-1.77,16.8,16.8,0,0,1,7.22,1.53,10.12,10.12,0,0,1,5,5.4,17.85,17.85,0,0,1,5-4.84,13.46,13.46,0,0,1,7.54-2.09,22.56,22.56,0,0,1,6.13.8,12.35,12.35,0,0,1,4.84,2.59,11.77,11.77,0,0,1,3.14,4.63,18.89,18.89,0,0,1,1.13,6.9v27.9H217.43V37c0-1.4-.05-2.71-.16-3.95a8.54,8.54,0,0,0-.89-3.23,5.32,5.32,0,0,0-2.14-2.17,7.68,7.68,0,0,0-3.83-.81,7.32,7.32,0,0,0-3.91.93,6.78,6.78,0,0,0-2.34,2.42A9.56,9.56,0,0,0,203,33.61a25.79,25.79,0,0,0-.29,3.83V60.67H191.3V37.28c0-1.23,0-2.46-.08-3.67a10.23,10.23,0,0,0-.68-3.34,5.21,5.21,0,0,0-2-2.46,7.59,7.59,0,0,0-4.15-.93,8.67,8.67,0,0,0-2.14.36,7,7,0,0,0-2.58,1.37,8.08,8.08,0,0,0-2.14,2.91,11.78,11.78,0,0,0-.88,5V60.67H165.17V19Z"/><path class="cls-1" d="M236.54,30.79a19.14,19.14,0,0,1,11.13-11.37,23.76,23.76,0,0,1,8.87-1.57,24.08,24.08,0,0,1,8.91,1.57,19.06,19.06,0,0,1,11.17,11.37,25.65,25.65,0,0,1,1.53,9.07,25.32,25.32,0,0,1-1.53,9,19.67,19.67,0,0,1-4.36,6.89,18.91,18.91,0,0,1-6.81,4.39,24.5,24.5,0,0,1-8.91,1.54,24.17,24.17,0,0,1-8.87-1.54,18.92,18.92,0,0,1-6.77-4.39,19.53,19.53,0,0,1-4.36-6.89,25.32,25.32,0,0,1-1.53-9,25.65,25.65,0,0,1,1.53-9.07m10.4,14A13.22,13.22,0,0,0,248.6,49a8.79,8.79,0,0,0,3.1,3,9.5,9.5,0,0,0,4.84,1.13A9.73,9.73,0,0,0,261.42,52a8.75,8.75,0,0,0,3.14-3,13.22,13.22,0,0,0,1.66-4.28,24.55,24.55,0,0,0,.48-4.88,25.33,25.33,0,0,0-.48-4.92,12.73,12.73,0,0,0-1.66-4.27,9.18,9.18,0,0,0-3.14-3,9.43,9.43,0,0,0-4.88-1.17,8.8,8.8,0,0,0-7.94,4.19,12.73,12.73,0,0,0-1.66,4.27,25.33,25.33,0,0,0-.48,4.92,24.55,24.55,0,0,0,.48,4.88"/><path class="cls-1" d="M5.57,39.44v2.91h.08a8.4,8.4,0,0,1,2.81-2.58,7.56,7.56,0,0,1,3.76-.91,8.57,8.57,0,0,1,3.71.79,5.16,5.16,0,0,1,2.56,2.78,9.13,9.13,0,0,1,2.6-2.49A6.89,6.89,0,0,1,25,38.86a11.34,11.34,0,0,1,3.16.41,6.36,6.36,0,0,1,2.49,1.33A6,6,0,0,1,32.24,43a9.66,9.66,0,0,1,.59,3.55V60.92h-5.9V48.75q0-1.08-.09-2a4.19,4.19,0,0,0-.46-1.66,2.64,2.64,0,0,0-1.1-1.12,3.92,3.92,0,0,0-2-.42,3.74,3.74,0,0,0-2,.48,3.42,3.42,0,0,0-1.21,1.24A5.16,5.16,0,0,0,19.51,47a13,13,0,0,0-.15,2v12h-5.9V48.87c0-.64,0-1.27,0-1.89a5.38,5.38,0,0,0-.35-1.73A2.71,2.71,0,0,0,12,44a3.92,3.92,0,0,0-2.14-.48,4.2,4.2,0,0,0-1.1.19,3.64,3.64,0,0,0-1.33.7,4.12,4.12,0,0,0-1.1,1.5,6,6,0,0,0-.46,2.55V60.92H0V39.44Z"/><path class="cls-1" d="M36.82,31.25h5.9v4.86h-5.9Zm5.89,29.67h-5.9V39.44h5.9Z"/><polygon class="cls-1" points="86.63 0 74.57 11.86 66.4 11.86 74.01 0 86.63 0"/></g></g></svg>