<svg xmlns="http://www.w3.org/2000/svg" viewBox="0 0 130.39 130.39"><defs><style>.cls-1{fill:#b82233;}</style></defs><title>mal</title><g id="Capa_2" data-name="Capa 2"><g id="Layer_1" data-name="Layer 1"><path class="cls-1" d="M56.44,46.12a9.07,9.07,0,1,1-9.07-9.07A9.07,9.07,0,0,1,56.44,46.12Z"/><path class="cls-1" d="M92.72,46.12a9.07,9.07,0,1,1-9.07-9.07A9.07,9.07,0,0,1,92.72,46.12Z"/><path class="cls-1" d="M65.2,130.39A65.2,65.2,0,1,1,130.39,65.2,65.27,65.27,0,0,1,65.2,130.39ZM65.2,7A58.23,58.23,0,1,0,123.43,65.2,58.29,58.29,0,0,0,65.2,7Z"/><path class="cls-1" d="M65.51,84.12s15.67-.94,24.37,15.09c.62,1.33,1.13,1.6,2,1.33,1-.31,1-1.1.86-2.26-.41-3.63-7.53-21.2-27.21-21.2S38.56,95,38.3,98.48a1.9,1.9,0,0,0,1,2.06,1.38,1.38,0,0,0,1.56-.77C41.58,98.51,48.57,84.12,65.51,84.12Z"/></g></g></svg>