<?xml version="1.0" encoding="utf-8"?>
<!-- Generator: Adobe Illustrator 16.0.0, SVG Export Plug-In . SVG Version: 6.00 Build 0)  -->
<!DOCTYPE svg PUBLIC "-//W3C//DTD SVG 1.1//EN" "http://www.w3.org/Graphics/SVG/1.1/DTD/svg11.dtd">
<svg version="1.1" id="Layer_1" xmlns="http://www.w3.org/2000/svg" xmlns:xlink="http://www.w3.org/1999/xlink" x="0px" y="0px"
	 width="40.5px" height="41.75px" viewBox="0 0 40.5 41.75" enable-background="new 0 0 40.5 41.75" xml:space="preserve">
<g>
	<g>
		<path fill="#4E5568" d="M20.119,22.272c0.037,0,0.075,0,0.121,0c0.014,0,0.029,0,0.043,0c0.023,0,0.054,0,0.075,0
			c2.186-0.036,3.952-0.806,5.257-2.274c2.872-3.236,2.396-8.785,2.342-9.313c-0.186-3.977-2.064-5.877-3.617-6.766
			c-1.154-0.664-2.506-1.021-4.012-1.052h-0.052c-0.007,0-0.022,0-0.029,0h-0.046c-0.828,0-2.453,0.133-4.012,1.021
			c-1.566,0.889-3.477,2.79-3.662,6.796c-0.052,0.528-0.529,6.077,2.342,9.313C16.167,21.467,17.933,22.236,20.119,22.272z
			 M14.519,10.871c0-0.022,0.008-0.047,0.008-0.062c0.246-5.348,4.039-5.924,5.667-5.924h0.03c0.016,0,0.035,0,0.059,0
			c2.014,0.048,5.438,0.867,5.669,5.924c0,0.021,0,0.045,0.006,0.062c0.009,0.05,0.53,5.122-1.841,7.794
			c-0.941,1.059-2.191,1.58-3.841,1.594c-0.017,0-0.022,0-0.036,0l0,0c-0.016,0-0.022,0-0.039,0
			c-1.641-0.014-2.901-0.535-3.833-1.594C14.003,16.009,14.509,10.914,14.519,10.871z"/>
		<path fill="#4E5568" d="M35.565,31.477c0-0.008,0-0.015,0-0.022c0-0.061-0.005-0.119-0.005-0.186
			c-0.047-1.478-0.145-4.93-3.383-6.034c-0.021-0.006-0.05-0.017-0.072-0.023c-3.365-0.857-6.16-2.796-6.189-2.817
			c-0.457-0.321-1.083-0.21-1.402,0.246c-0.322,0.454-0.209,1.081,0.245,1.4c0.128,0.092,3.096,2.156,6.81,3.109
			c1.736,0.62,1.931,2.478,1.984,4.179c0,0.065,0,0.126,0.007,0.187c0.007,0.671-0.036,1.707-0.157,2.304
			c-1.207,0.688-5.944,3.058-13.148,3.058c-7.174,0-11.94-2.38-13.155-3.065c-0.118-0.597-0.175-1.633-0.157-2.304
			c0-0.061,0.007-0.119,0.007-0.186C7,29.619,7.194,27.763,8.931,27.144c3.714-0.955,6.683-3.027,6.81-3.11
			c0.455-0.319,0.567-0.945,0.246-1.401c-0.32-0.455-0.946-0.568-1.401-0.246c-0.029,0.021-2.811,1.961-6.189,2.817
			c-0.03,0.008-0.053,0.015-0.077,0.025c-3.235,1.11-3.331,4.562-3.378,6.032c0,0.067,0,0.127-0.008,0.186v0.022
			c-0.004,0.388-0.014,2.378,0.382,3.38c0.077,0.193,0.208,0.355,0.388,0.468c0.224,0.151,5.586,3.566,14.557,3.566
			c8.974,0,14.336-3.425,14.561-3.566c0.171-0.112,0.312-0.274,0.387-0.468C35.58,33.856,35.574,31.862,35.565,31.477z"/>
	</g>
</g>
</svg>
