<svg xmlns="http://www.w3.org/2000/svg" viewBox="0 0 67.87 67.87"><defs><style>.cls-1{fill:#fff;}</style></defs><title>1</title><g id="Capa_2" data-name="Capa 2"><g id="Layer_1" data-name="Layer 1"><path class="cls-1" d="M29.38,24a4.73,4.73,0,1,1-4.73-4.72A4.72,4.72,0,0,1,29.38,24Z"/><path class="cls-1" d="M48.26,24a4.72,4.72,0,1,1-4.72-4.72A4.72,4.72,0,0,1,48.26,24Z"/><path class="cls-1" d="M33.93,67.87A33.94,33.94,0,1,1,67.87,33.93,34,34,0,0,1,33.93,67.87Zm0-64.24a30.31,30.31,0,1,0,30.31,30.3A30.33,30.33,0,0,0,33.93,3.63Z"/><path class="cls-1" d="M34.1,44.5a10.14,10.14,0,0,1,9,5.57c.22.5.41.59.73.5s.37-.41.32-.84a10.36,10.36,0,0,0-20.11.08.71.71,0,0,0,.37.76.51.51,0,0,0,.58-.29C25.26,49.82,27.84,44.5,34.1,44.5Z"/><path class="cls-1" d="M44.08,31.17c-.07-.29-.24-.54-.54-.54s-.34.25-.41.54c-.22,1-.78,3.68-.78,3.9V35h-.12a1.33,1.33,0,0,0,1.38,1.5A1.4,1.4,0,0,0,45,35.05C45,34.82,44.33,32.15,44.08,31.17Z"/></g></g></svg>