<svg xmlns="http://www.w3.org/2000/svg" viewBox="0 0 68.03 68.03"><defs><style>.cls-1{fill:#80021a;}</style></defs><title>1</title><g id="Capa_2" data-name="Capa 2"><g id="Layer_1" data-name="Layer 1"><path class="cls-1" d="M34,68A34,34,0,1,1,68,34,34.05,34.05,0,0,1,34,68Zm0-64.4A30.39,30.39,0,1,0,64.4,34,30.42,30.42,0,0,0,34,3.63Z"/><path class="cls-1" d="M46.16,30.23a3.63,3.63,0,1,1-3.62-3.63A3.62,3.62,0,0,1,46.16,30.23Z"/><path class="cls-1" d="M34,39.05a9.65,9.65,0,0,0-9.66,9.65s0,.09,0,.13a9.92,9.92,0,0,0,19.29,0s0-.08,0-.13A9.65,9.65,0,0,0,34,39.05Z"/><path class="cls-1" d="M47,24.1c.56.11.84-.16.9-.41a.78.78,0,0,0-.45-1,8.17,8.17,0,0,0-10.88,7.42.79.79,0,0,0,.69.85.72.72,0,0,0,.75-.64A7.85,7.85,0,0,1,47,24.1Z"/><path class="cls-1" d="M22,30.23a3.63,3.63,0,1,0,3.62-3.63A3.62,3.62,0,0,0,22,30.23Z"/><path class="cls-1" d="M21.18,24.1c-.56.11-.84-.16-.9-.41a.78.78,0,0,1,.45-1,8.18,8.18,0,0,1,10.89,7.42.8.8,0,0,1-.7.85.72.72,0,0,1-.75-.64A7.85,7.85,0,0,0,21.18,24.1Z"/></g></g></svg>