<?xml version="1.0" encoding="UTF-8"?>
<svg width="68px" height="68px" viewBox="0 0 68 68" version="1.1" xmlns="http://www.w3.org/2000/svg" xmlns:xlink="http://www.w3.org/1999/xlink">
    <!-- Generator: Sketch 46.2 (44496) - http://www.bohemiancoding.com/sketch -->
    <title>Copia de 5 3 Copy</title>
    <desc>Created with Sketch.</desc>
    <defs></defs>
    <g id="Page-1" stroke="none" stroke-width="1" fill="none" fill-rule="evenodd">
        <g id="Copia-de-5-3-Copy" fill-rule="nonzero" fill="#C9C9C9">
            <path d="M34,68 C15.2223185,68 2.29960275e-15,52.7776815 0,34 C-2.29960275e-15,15.2223185 15.2223185,3.44940413e-15 34,0 C52.7776815,-3.44940413e-15 68,15.2223185 68,34 C67.9724633,52.7662636 52.7662636,67.9724633 34,68 Z M34,3.6 C17.2186712,3.6055229 3.61816086,17.2120027 3.62000183,33.9933322 C3.6218428,50.7746618 17.2253382,64.3781572 34.0066678,64.3799982 C50.7879973,64.3818391 64.3944771,50.7813288 64.4,34 C64.3724343,17.2268322 50.7731869,3.64100509 34,3.63 L34,3.6 Z" id="Shape"></path>
            <path d="M37,20.89 C35.0494046,21.7606195 32.8205954,21.7606195 30.87,20.89 C28.704302,19.8247059 26.3489009,19.199318 23.94,19.05 C21.24,18.82 15.58,18.82 12.8,19.85 C12.4529552,19.9461059 12.1175882,20.0802527 11.8,20.25 C11.72,20.33 11.64,20.41 11.64,20.73 L11.64,21.13 C11.64,21.92 11.56,21.6 12.12,21.92 C13.24,22.56 13.87,24.23 14.19,26.54 C14.71,29.88 16.38,32 19,33 C21.4954557,33.9244955 24.2442387,33.8960107 26.72,32.92 C28.1483531,32.3764895 29.3717641,31.4012561 30.22,30.13 C31.9,27.74 31.34,26.23 32.22,24.13 C32.94,22.3 35.01,22.3 35.81,24.13 C36.68,26.2 36.12,27.71 37.81,30.13 C38.6786157,31.3823616 39.895523,32.3524106 41.31,32.92 C43.7768684,33.8883896 46.5135192,33.9168594 49,33 C51.71,32 53.3,29.89 53.78,26.55 C54.1,24.24 54.78,22.55 55.85,21.93 C56.41,21.61 56.33,21.93 56.33,21.14 L56.33,20.74 C56.33,20.42 56.33,20.34 56.09,20.26 C55.7724118,20.0902527 55.4370448,19.9561059 55.09,19.86 C52.23,18.86 46.57,18.86 43.95,19.06 C41.520801,19.2220755 39.144907,19.8465962 36.95,20.9" id="Shape"></path>
            <path d="M34,49.52 C28.6245053,49.4902871 23.7191153,46.4504904 21.3,41.65 C20.98,40.95 20.71,40.81 20.3,40.95 C19.89,41.09 19.78,41.53 19.85,42.13 C20,44 23.75,53.19 34,53.19 C44.25,53.19 48.08,43.84 48.21,42 C48.2571028,41.589143 48.0464454,41.1916764 47.68,41 C47.3495344,40.9262933 47.0123625,41.092798 46.87,41.4 C46.5,42 42.86,49.52 34,49.52 Z" id="Shape"></path>
        </g>
    </g>
</svg>