<svg xmlns="http://www.w3.org/2000/svg" viewBox="0 0 68.03 68.03"><defs><style>.cls-1{fill:#ee3f62;}</style></defs><title>3</title><g id="Capa_2" data-name="Capa 2"><g id="Layer_1" data-name="Layer 1"><path class="cls-1" d="M29.45,24.06a4.74,4.74,0,1,1-4.74-4.73A4.74,4.74,0,0,1,29.45,24.06Z"/><path class="cls-1" d="M48.38,24.06a4.74,4.74,0,1,1-4.74-4.73A4.74,4.74,0,0,1,48.38,24.06Z"/><path class="cls-1" d="M34,68A34,34,0,1,1,68,34,34.05,34.05,0,0,1,34,68Zm0-64.4A30.39,30.39,0,1,0,64.4,34,30.42,30.42,0,0,0,34,3.63Z"/><path class="cls-1" d="M43.48,47.34H24.55a1.51,1.51,0,1,1,0-3H43.48a1.51,1.51,0,1,1,0,3Z"/></g></g></svg>