<svg xmlns="http://www.w3.org/2000/svg" viewBox="0 0 68.03 68.03"><defs><style>.cls-1{fill:#f26e21;}</style></defs><title>4</title><g id="Capa_2" data-name="Capa 2"><g id="Layer_1" data-name="Layer 1"><path class="cls-1" d="M34,68A34,34,0,1,1,68,34,34.05,34.05,0,0,1,34,68Zm0-64.4A30.39,30.39,0,1,0,64.4,34,30.42,30.42,0,0,0,34,3.63Z"/><path class="cls-1" d="M34.18,50.66a14.31,14.31,0,0,1-12.72-7.87c-.32-.7-.59-.83-1-.7s-.52.58-.45,1.19c.22,1.89,3.93,11,14.2,11S48.24,45,48.38,43.17a1,1,0,0,0-.53-1.08.71.71,0,0,0-.81.41C46.66,43.15,43,50.66,34.18,50.66Z"/><path class="cls-1" d="M19.39,23.08c-.39-.41-.78-.34-1-.17A.79.79,0,0,0,18.23,24a8.19,8.19,0,0,0,13.18.09.78.78,0,0,0-.1-1.09.72.72,0,0,0-1,.09A7.84,7.84,0,0,1,19.39,23.08Z"/><path class="cls-1" d="M38.16,23.08c-.4-.41-.78-.34-1-.17A.79.79,0,0,0,37,24a8.19,8.19,0,0,0,13.18.09A.78.78,0,0,0,50.08,23a.72.72,0,0,0-1,.09A7.84,7.84,0,0,1,38.16,23.08Z"/></g></g></svg>