<?xml version="1.0" encoding="utf-8"?>
<!-- Generator: Adobe Illustrator 16.0.0, SVG Export Plug-In . SVG Version: 6.00 Build 0)  -->
<!DOCTYPE svg PUBLIC "-//W3C//DTD SVG 1.1//EN" "http://www.w3.org/Graphics/SVG/1.1/DTD/svg11.dtd">
<svg version="1.1" id="Layer_1" xmlns="http://www.w3.org/2000/svg" xmlns:xlink="http://www.w3.org/1999/xlink" x="0px" y="0px"
	 width="98.979px" height="98.98px" viewBox="0 0 98.979 98.98" enable-background="new 0 0 98.979 98.98" xml:space="preserve">
<g>
	<path fill="#FFFFFF" d="M36.895,80.078c3.599,1.637,7.852,2.455,12.595,2.455s8.997-0.982,12.596-2.455
		c-3.436-1.799-7.688-2.78-12.596-2.78S40.33,78.279,36.895,80.078"/>
	<path fill="#FFFFFF" d="M74.026,56.033c-24.536,0-24.536,0-48.909,0c-3.435,0-3.435,6.543-0.163,6.543c17.012,0,32.061,0,49.072,0
		C77.297,62.576,77.297,56.033,74.026,56.033"/>
	<path fill="#FFFFFF" d="M49.49,0.418c-27.103,0-49.072,21.971-49.072,49.072c0,27.103,21.97,49.072,49.072,49.072
		s49.072-21.97,49.072-49.072C98.562,22.389,76.592,0.418,49.49,0.418z M68.301,26.59c4.517,0,8.179,3.662,8.179,8.18
		c0,4.516-3.662,8.178-8.179,8.178c-4.518,0-8.179-3.662-8.179-8.178C60.123,30.252,63.784,26.59,68.301,26.59z M30.678,26.59
		c4.518,0,8.179,3.662,8.179,8.18c0,4.516-3.661,8.178-8.179,8.178c-4.516,0-8.179-3.662-8.179-8.178
		C22.5,30.252,26.163,26.59,30.678,26.59z M49.49,85.477c-27.808,0-35.332-24.264-28.952-32.441C21.191,52.217,22.336,52,23.645,52
		c25.845,0,25.845,0,51.689,0c1.309,0,2.454,0.217,3.108,1.035C84.822,61.213,77.297,85.477,49.49,85.477z"/>
</g>
</svg>
