<svg xmlns="http://www.w3.org/2000/svg" viewBox="0 0 67.87 67.87"><defs><style>.cls-1{fill:#fff;}</style></defs><title>4</title><g id="Capa_2" data-name="Capa 2"><g id="Layer_1" data-name="Layer 1"><path class="cls-1" d="M29.38,24a4.73,4.73,0,1,1-4.73-4.72A4.72,4.72,0,0,1,29.38,24Z"/><path class="cls-1" d="M48.26,24a4.72,4.72,0,1,1-4.72-4.72A4.72,4.72,0,0,1,48.26,24Z"/><path class="cls-1" d="M33.93,67.87A33.94,33.94,0,1,1,67.87,33.93,34,34,0,0,1,33.93,67.87Zm0-64.24a30.31,30.31,0,1,0,30.31,30.3A30.33,30.33,0,0,0,33.93,3.63Z"/><path class="cls-1" d="M34.1,47.77a14.28,14.28,0,0,1-12.69-7.85c-.32-.69-.58-.83-1-.69s-.52.57-.45,1.18c.22,1.88,3.92,11,14.17,11s14-9.33,14.16-11.14a1,1,0,0,0-.53-1.07.72.72,0,0,0-.81.4C46.55,40.28,42.92,47.77,34.1,47.77Z"/></g></g></svg>