<?xml version="1.0" encoding="utf-8"?>
<!-- Generator: Adobe Illustrator 16.0.0, SVG Export Plug-In . SVG Version: 6.00 Build 0)  -->
<!DOCTYPE svg PUBLIC "-//W3C//DTD SVG 1.1//EN" "http://www.w3.org/Graphics/SVG/1.1/DTD/svg11.dtd">
<svg version="1.1" id="Layer_1" xmlns="http://www.w3.org/2000/svg" xmlns:xlink="http://www.w3.org/1999/xlink" x="0px" y="0px"
	 width="40.5px" height="41.75px" viewBox="0 0 40.5 41.75" enable-background="new 0 0 40.5 41.75" xml:space="preserve">
<g>
	<g>
		<path fill="#4E5568" d="M32.126,21.7H19.43V9.002c0-0.512-0.412-0.923-0.925-0.923c-8.018,0-14.544,6.527-14.544,14.544
			c0,8.018,6.526,14.544,14.544,14.544c8.019,0,14.544-6.526,14.544-14.544C33.049,22.117,32.631,21.7,32.126,21.7z M18.505,35.32
			c-6.998,0-12.696-5.699-12.696-12.697c0-6.69,5.199-12.19,11.773-12.661v12.661c0,0.513,0.41,0.924,0.923,0.924h12.663
			C30.696,30.121,25.196,35.32,18.505,35.32z"/>
		<path fill="#4E5568" d="M36.539,19.079c-0.014-3.529-1.308-6.93-3.64-9.578c-2.764-3.125-6.732-4.918-10.904-4.918
			c-0.513,0-0.924,0.411-0.924,0.924v13.62c0,0.514,0.411,0.925,0.924,0.925h13.62l0,0c0.513,0,0.924-0.411,0.924-0.925
			C36.539,19.113,36.539,19.101,36.539,19.079z M22.918,18.211V6.472c3.297,0.239,6.389,1.765,8.592,4.262
			c1.847,2.088,2.941,4.714,3.146,7.478H22.918L22.918,18.211z"/>
	</g>
</g>
</svg>
