<svg xmlns="http://www.w3.org/2000/svg" viewBox="0 0 130.39 130.39"><defs><style>.cls-1{fill:#ee3f62;}</style></defs><title>ok</title><g id="Capa_2" data-name="Capa 2"><g id="Layer_1" data-name="Layer 1"><path class="cls-1" d="M56.44,46.12a9.07,9.07,0,1,1-9.07-9.07A9.07,9.07,0,0,1,56.44,46.12Z"/><path class="cls-1" d="M92.72,46.12a9.07,9.07,0,1,1-9.07-9.07A9.07,9.07,0,0,1,92.72,46.12Z"/><path class="cls-1" d="M65.2,130.39A65.2,65.2,0,1,1,130.39,65.2,65.27,65.27,0,0,1,65.2,130.39ZM65.2,7A58.23,58.23,0,1,0,123.43,65.2,58.29,58.29,0,0,0,65.2,7Z"/><path class="cls-1" d="M83.34,91.46H47.05a3,3,0,1,1,0-6H83.34a3,3,0,1,1,0,6Z"/></g></g></svg>