<?xml version="1.0" encoding="utf-8"?>
<!-- Generator: Adobe Illustrator 16.0.0, SVG Export Plug-In . SVG Version: 6.00 Build 0)  -->
<!DOCTYPE svg PUBLIC "-//W3C//DTD SVG 1.1//EN" "http://www.w3.org/Graphics/SVG/1.1/DTD/svg11.dtd">
<svg version="1.1" id="Layer_1" xmlns="http://www.w3.org/2000/svg" xmlns:xlink="http://www.w3.org/1999/xlink" x="0px" y="0px"
	 width="98.979px" height="98.98px" viewBox="0 0 98.979 98.98" enable-background="new 0 0 98.979 98.98" xml:space="preserve">
<g>
	<path fill="#FFFFFF" d="M5.997,28.562c5.724-2.128,17.332-2.128,22.891-1.637c5.724,0.49,10.463,1.798,14.227,3.762
		c3.596,1.797,8.993,1.797,12.59,0c3.923-1.964,8.664-3.271,14.389-3.762c5.395-0.491,17.004-0.491,22.89,1.637
		c0.355,0.088,0.714,0.229,1.069,0.389C86.295,12.105,69.29,0.438,49.489,0.438S12.685,12.105,4.928,28.951
		C5.285,28.791,5.641,28.65,5.997,28.562z"/>
	<path fill="#FFFFFF" d="M95.427,32.238c-0.053,0.266-0.256,0.164-0.975,0.574c-2.289,1.308-3.598,4.741-4.25,9.482
		c-0.981,6.867-4.251,11.121-9.811,13.246c-5.071,1.961-10.791,1.797-15.86-0.166c-2.78-1.143-5.232-2.941-7.194-5.723
		c-3.434-4.904-2.289-8.011-4.088-12.262c-1.636-3.762-5.886-3.762-7.356,0c-1.799,4.251-0.654,7.357-4.09,12.262
		c-1.961,2.944-4.414,4.58-7.192,5.723c-5.071,1.963-10.793,2.127-15.86,0.166c-5.396-1.964-8.829-6.379-9.811-13.246
		c-0.654-4.741-1.961-8.175-4.25-9.482c-0.933-0.533-0.996-0.219-0.988-0.952c-2.101,5.471-3.264,11.411-3.264,17.631
		c0,27.14,21.909,49.052,49.051,49.052c27.143,0,49.053-21.912,49.053-49.052C98.542,43.415,97.436,37.603,95.427,32.238z
		 M72.053,68.948c-4.089,6.703-12.1,12.589-22.564,12.589c-10.464,0-18.475-6.05-22.563-12.589c-0.98-1.8,0.328-3.763,1.962-2.616
		c13.245,9.155,27.961,9.319,41.205,0C71.726,65.185,73.036,67.148,72.053,68.948z"/>
</g>
</svg>
