<svg xmlns="http://www.w3.org/2000/svg" viewBox="0 0 67.87 67.87"><defs><style>.cls-1{fill:#ee3f62;}</style></defs><title>3_1</title><g id="Capa_2" data-name="Capa 2"><g id="Layer_1" data-name="Layer 1"><path class="cls-1" d="M29.38,24a4.73,4.73,0,1,1-4.73-4.72A4.72,4.72,0,0,1,29.38,24Z"/><path class="cls-1" d="M48.26,24a4.72,4.72,0,1,1-4.72-4.72A4.72,4.72,0,0,1,48.26,24Z"/><path class="cls-1" d="M33.93,67.87A33.94,33.94,0,1,1,67.87,33.93,34,34,0,0,1,33.93,67.87Zm0-64.24a30.31,30.31,0,1,0,30.31,30.3A30.33,30.33,0,0,0,33.93,3.63Z"/><path class="cls-1" d="M43.38,47.61H24.49a1.51,1.51,0,1,1,0-3H43.38a1.51,1.51,0,1,1,0,3Z"/></g></g></svg>