<?xml version="1.0" encoding="UTF-8"?>
<svg width="68px" height="68px" viewBox="0 0 68 68" version="1.1" xmlns="http://www.w3.org/2000/svg" xmlns:xlink="http://www.w3.org/1999/xlink">
    <!-- Generator: Sketch 46.2 (44496) - http://www.bohemiancoding.com/sketch -->
    <title>Copia de 5</title>
    <desc>Created with Sketch.</desc>
    <defs></defs>
    <g id="Page-1" stroke="none" stroke-width="1" fill="none" fill-rule="evenodd">
        <g id="Copia-de-5" transform="translate(-1.000000, -1.000000)" fill-rule="nonzero" fill="#C9C9C9">
            <path d="M49.3,39 C50.2381575,38.9669068 51.1486736,39.3208962 51.8181127,39.9789888 C52.4875517,40.6370815 52.8570526,41.5414139 52.84,42.48 C52.84,46.08 48.6,54.94 34.52,54.94 C20.44,54.94 17.35,45.37 17.35,42.44 C17.3795588,40.5450766 18.8769612,38.9995121 20.77,38.91 L49.3,39 Z" id="Shape"></path>
            <path d="M34.93,68.87 C16.1854556,68.87 0.99,53.6745444 0.99,34.93 C0.99,16.1854556 16.1854556,0.99 34.93,0.99 C53.6745444,0.99 68.87,16.1854556 68.87,34.93 C68.8369746,53.6608478 53.6608478,68.8369746 34.93,68.87 L34.93,68.87 Z M34.93,4.63 C22.6698395,4.63000067 11.6170815,12.0158776 6.92625593,23.343176 C2.23543036,34.6704745 4.83045867,47.7081302 13.5011315,56.3759424 C22.1718044,65.0437545 35.2103156,67.6344806 46.5360656,62.9399175 C57.8618156,58.2453544 65.2440449,47.1901598 65.24,34.93 C65.2234544,18.1987262 51.6612783,4.64102465 34.93,4.63 Z" id="Shape"></path>
            <path d="M52.38,28.31 C52.83,28.78 53.26,28.7 53.48,28.5 C53.8577225,28.2247032 53.9543296,27.7021468 53.7,27.31 C51.9779068,24.941819 49.2333047,23.5324295 46.3052514,23.5126987 C43.377198,23.4929679 40.6138515,24.8652418 38.86,27.21 C38.7094843,27.3860803 38.6354042,27.6149159 38.6541752,27.8457988 C38.6729461,28.0766816 38.7830181,28.2905455 38.96,28.44 C39.2971082,28.7033124 39.7817082,28.6548524 40.06,28.33 C43.4828871,24.9862912 48.9462747,24.9774221 52.38,28.31 L52.38,28.31 Z" id="Shape"></path>
            <path d="M31.25,28.31 C31.7,28.78 32.13,28.7 32.34,28.5 C32.7177225,28.2247032 32.8143296,27.7021468 32.56,27.31 C30.8379068,24.941819 28.0933047,23.5324295 25.1652514,23.5126987 C22.237198,23.4929679 19.4738515,24.8652418 17.72,27.21 C17.4175255,27.5802995 17.461682,28.1234235 17.82,28.44 C18.1571082,28.7033124 18.6417082,28.6548524 18.92,28.33 C22.3462793,24.9850746 27.8128874,24.9762075 31.25,28.31 L31.25,28.31 Z" id="Shape"></path>
        </g>
    </g>
</svg>