<svg xmlns="http://www.w3.org/2000/svg" viewBox="0 0 67.87 67.87"><defs><style>.cls-1{fill:#fff;}</style></defs><title>2</title><g id="Capa_2" data-name="Capa 2"><g id="Layer_1" data-name="Layer 1"><path class="cls-1" d="M29.38,24a4.73,4.73,0,1,1-4.73-4.72A4.73,4.73,0,0,1,29.38,24Z"/><path class="cls-1" d="M48.26,24a4.72,4.72,0,1,1-4.72-4.72A4.72,4.72,0,0,1,48.26,24Z"/><path class="cls-1" d="M33.93,67.87A33.94,33.94,0,1,1,67.87,33.94,34,34,0,0,1,33.93,67.87Zm0-64.24A30.31,30.31,0,1,0,64.24,33.94,30.33,30.33,0,0,0,33.93,3.63Z"/><path class="cls-1" d="M34.1,43.79a14.27,14.27,0,0,1,12.68,7.85c.32.69.59.83,1,.69s.52-.57.45-1.18c-.22-1.88-3.92-11-14.16-11s-14,9.33-14.17,11.14a1,1,0,0,0,.53,1.07.71.71,0,0,0,.81-.4C21.64,51.28,25.28,43.79,34.1,43.79Z"/></g></g></svg>