<svg xmlns="http://www.w3.org/2000/svg" viewBox="0 0 68.03 68.03"><defs><style>.cls-1{fill:#fff;}</style></defs><title>2_2</title><g id="Capa_2" data-name="Capa 2"><g id="Layer_1" data-name="Layer 1"><path class="cls-1" d="M34,68A34,34,0,1,1,68,34,34.05,34.05,0,0,1,34,68Zm0-64.4A30.39,30.39,0,1,0,64.4,34,30.42,30.42,0,0,0,34,3.63Z"/><path class="cls-1" d="M34.18,43.89a14.3,14.3,0,0,1,12.71,7.87c.33.7.59.83,1,.7s.52-.58.45-1.18c-.22-1.9-3.93-11.06-14.2-11.06S20.12,49.57,20,51.38a1,1,0,0,0,.53,1.08.72.72,0,0,0,.81-.4C21.69,51.4,25.34,43.89,34.18,43.89Z"/><path class="cls-1" d="M47.74,20c-3.91-2.34-8.9-1.82-11.64,2.43a.8.8,0,0,0,.2,1.08.73.73,0,0,0,1-.19A8.11,8.11,0,0,1,42,20.68a4.73,4.73,0,1,0,8,3.38A4.6,4.6,0,0,0,47.74,20Z"/><path class="cls-1" d="M28.81,20c-3.91-2.34-8.9-1.82-11.64,2.43a.79.79,0,0,0,.2,1.08.73.73,0,0,0,1-.19A8.11,8.11,0,0,1,23,20.68a4.73,4.73,0,1,0,8,3.38A4.6,4.6,0,0,0,28.81,20Z"/></g></g></svg>