<svg xmlns="http://www.w3.org/2000/svg" viewBox="0 0 67.87 67.87"><defs><style>.cls-1{fill:#fff;}</style></defs><title>5_3</title><g id="Capa_2" data-name="Capa 2"><g id="Layer_1" data-name="Layer 1"><path class="cls-1" d="M48.3,38a3.42,3.42,0,0,1,3.54,3.48c0,3.6-4.24,12.46-18.32,12.46S16.35,44.37,16.35,41.44a3.59,3.59,0,0,1,3.42-3.53Z"/><path class="cls-1" d="M33.93,67.87A33.94,33.94,0,1,1,67.87,33.93,34,34,0,0,1,33.93,67.87Zm0-64.24a30.31,30.31,0,1,0,30.31,30.3A30.33,30.33,0,0,0,33.93,3.63Z"/><path class="cls-1" d="M51.38,27.31c.45.47.88.39,1.1.19a.88.88,0,0,0,.22-1.19,9.22,9.22,0,0,0-14.84-.1.87.87,0,0,0,.1,1.23.8.8,0,0,0,1.1-.11A8.83,8.83,0,0,1,51.38,27.31Z"/><path class="cls-1" d="M30.25,27.31c.45.47.88.39,1.09.19a.88.88,0,0,0,.22-1.19,9.22,9.22,0,0,0-14.84-.1.89.89,0,0,0,.1,1.23.8.8,0,0,0,1.1-.11A8.84,8.84,0,0,1,30.25,27.31Z"/></g></g></svg>